<mxfile host="app.diagrams.net" modified="2023-10-09T08:29:07.909Z" agent="Mozilla/5.0 (Windows NT 10.0; Win64; x64) AppleWebKit/537.36 (KHTML, like Gecko) Chrome/117.0.0.0 Safari/537.36" etag="1zW-iG03b8NIRTQSU0Gh" version="22.0.4" type="github">
  <diagram id="C5RBs43oDa-KdzZeNtuy" name="Page-1">
    <mxGraphModel dx="1434" dy="758" grid="1" gridSize="10" guides="1" tooltips="1" connect="1" arrows="1" fold="1" page="1" pageScale="1" pageWidth="827" pageHeight="1169" math="0" shadow="0">
      <root>
        <mxCell id="WIyWlLk6GJQsqaUBKTNV-0" />
        <mxCell id="WIyWlLk6GJQsqaUBKTNV-1" parent="WIyWlLk6GJQsqaUBKTNV-0" />
        <mxCell id="KO4UqEcmSCtX2pTNxFN--81" value="" style="whiteSpace=wrap;html=1;dashed=1;dashPattern=1 2;" vertex="1" parent="WIyWlLk6GJQsqaUBKTNV-1">
          <mxGeometry x="100" y="380" width="580" height="690" as="geometry" />
        </mxCell>
        <mxCell id="KO4UqEcmSCtX2pTNxFN--39" value="" style="whiteSpace=wrap;html=1;fillColor=#dae8fc;strokeColor=#6c8ebf;dashed=1;fillStyle=auto;gradientColor=none;opacity=60;rounded=0;" vertex="1" parent="WIyWlLk6GJQsqaUBKTNV-1">
          <mxGeometry x="260" y="460" width="400" height="290" as="geometry" />
        </mxCell>
        <mxCell id="WIyWlLk6GJQsqaUBKTNV-8" value="Yes" style="rounded=0;html=1;jettySize=auto;orthogonalLoop=1;fontSize=11;endArrow=block;endFill=0;endSize=8;strokeWidth=1;shadow=0;labelBackgroundColor=none;edgeStyle=orthogonalEdgeStyle;" parent="WIyWlLk6GJQsqaUBKTNV-1" source="WIyWlLk6GJQsqaUBKTNV-10" target="KO4UqEcmSCtX2pTNxFN--6" edge="1">
          <mxGeometry y="20" relative="1" as="geometry">
            <mxPoint as="offset" />
            <mxPoint x="360" y="610" as="targetPoint" />
          </mxGeometry>
        </mxCell>
        <mxCell id="WIyWlLk6GJQsqaUBKTNV-9" value="No" style="edgeStyle=orthogonalEdgeStyle;rounded=0;html=1;jettySize=auto;orthogonalLoop=1;fontSize=11;endArrow=block;endFill=0;endSize=8;strokeWidth=1;shadow=0;labelBackgroundColor=none;" parent="WIyWlLk6GJQsqaUBKTNV-1" source="WIyWlLk6GJQsqaUBKTNV-10" target="WIyWlLk6GJQsqaUBKTNV-12" edge="1">
          <mxGeometry y="10" relative="1" as="geometry">
            <mxPoint as="offset" />
          </mxGeometry>
        </mxCell>
        <mxCell id="WIyWlLk6GJQsqaUBKTNV-10" value="&lt;br&gt;可用新版&lt;br&gt;Canvas" style="rhombus;whiteSpace=wrap;html=1;shadow=0;fontFamily=Helvetica;fontSize=12;align=center;strokeWidth=1;spacing=6;spacingTop=-4;" parent="WIyWlLk6GJQsqaUBKTNV-1" vertex="1">
          <mxGeometry x="310" y="470" width="100" height="80" as="geometry" />
        </mxCell>
        <mxCell id="WIyWlLk6GJQsqaUBKTNV-12" value="旧版Canvas渲染" style="rounded=1;whiteSpace=wrap;html=1;fontSize=12;glass=0;strokeWidth=1;shadow=0;" parent="WIyWlLk6GJQsqaUBKTNV-1" vertex="1">
          <mxGeometry x="470" y="600" width="120" height="40" as="geometry" />
        </mxCell>
        <mxCell id="KO4UqEcmSCtX2pTNxFN--6" value="&lt;br&gt;Canvas 2d&lt;br&gt;渲染" style="rhombus;whiteSpace=wrap;html=1;shadow=0;fontFamily=Helvetica;fontSize=12;align=center;strokeWidth=1;spacing=6;spacingTop=-4;" vertex="1" parent="WIyWlLk6GJQsqaUBKTNV-1">
          <mxGeometry x="310" y="580" width="100" height="80" as="geometry" />
        </mxCell>
        <mxCell id="KO4UqEcmSCtX2pTNxFN--46" value="" style="edgeStyle=orthogonalEdgeStyle;rounded=0;orthogonalLoop=1;jettySize=auto;html=1;endSize=8;endArrow=block;endFill=0;" edge="1" parent="WIyWlLk6GJQsqaUBKTNV-1" source="KO4UqEcmSCtX2pTNxFN--13" target="KO4UqEcmSCtX2pTNxFN--28">
          <mxGeometry relative="1" as="geometry" />
        </mxCell>
        <mxCell id="KO4UqEcmSCtX2pTNxFN--47" value="No" style="edgeLabel;html=1;align=center;verticalAlign=middle;resizable=0;points=[];" vertex="1" connectable="0" parent="KO4UqEcmSCtX2pTNxFN--46">
          <mxGeometry x="-0.2" y="2" relative="1" as="geometry">
            <mxPoint x="21" y="-12" as="offset" />
          </mxGeometry>
        </mxCell>
        <mxCell id="KO4UqEcmSCtX2pTNxFN--13" value="&lt;br&gt;强制转换为&lt;br&gt;图片展示" style="rhombus;whiteSpace=wrap;html=1;shadow=0;fontFamily=Helvetica;fontSize=12;align=center;strokeWidth=1;spacing=6;spacingTop=-4;" vertex="1" parent="WIyWlLk6GJQsqaUBKTNV-1">
          <mxGeometry x="405" y="780" width="100" height="80" as="geometry" />
        </mxCell>
        <mxCell id="KO4UqEcmSCtX2pTNxFN--24" value="Yes" style="edgeStyle=orthogonalEdgeStyle;rounded=0;html=1;jettySize=auto;orthogonalLoop=1;fontSize=11;endArrow=block;endFill=0;endSize=8;strokeWidth=1;shadow=0;labelBackgroundColor=none;entryX=0.5;entryY=0;entryDx=0;entryDy=0;exitX=1;exitY=0.5;exitDx=0;exitDy=0;" edge="1" parent="WIyWlLk6GJQsqaUBKTNV-1" source="KO4UqEcmSCtX2pTNxFN--13" target="KO4UqEcmSCtX2pTNxFN--26">
          <mxGeometry x="-0.7858" y="10" relative="1" as="geometry">
            <mxPoint as="offset" />
            <mxPoint x="560" y="800" as="sourcePoint" />
            <mxPoint x="645" y="1050" as="targetPoint" />
          </mxGeometry>
        </mxCell>
        <mxCell id="KO4UqEcmSCtX2pTNxFN--25" value="Yes" style="rounded=0;html=1;jettySize=auto;orthogonalLoop=1;fontSize=11;endArrow=block;endFill=0;endSize=8;strokeWidth=1;shadow=0;labelBackgroundColor=none;edgeStyle=orthogonalEdgeStyle;entryX=0.5;entryY=0;entryDx=0;entryDy=0;exitX=0.5;exitY=1;exitDx=0;exitDy=0;" edge="1" parent="WIyWlLk6GJQsqaUBKTNV-1" source="KO4UqEcmSCtX2pTNxFN--28" target="KO4UqEcmSCtX2pTNxFN--27">
          <mxGeometry x="-0.4286" y="15" relative="1" as="geometry">
            <mxPoint as="offset" />
            <mxPoint x="430" y="1020" as="sourcePoint" />
            <mxPoint x="429.5" y="950" as="targetPoint" />
          </mxGeometry>
        </mxCell>
        <mxCell id="KO4UqEcmSCtX2pTNxFN--26" value="图表转化为图片展示&lt;br&gt;并隐藏canvas" style="rounded=1;whiteSpace=wrap;html=1;fontSize=12;glass=0;strokeWidth=1;shadow=0;fillColor=#1ba1e2;strokeColor=#006EAF;fontColor=#ffffff;" vertex="1" parent="WIyWlLk6GJQsqaUBKTNV-1">
          <mxGeometry x="540" y="1010" width="120" height="40" as="geometry" />
        </mxCell>
        <mxCell id="KO4UqEcmSCtX2pTNxFN--27" value="渲染交互式图表(new)" style="rounded=1;whiteSpace=wrap;html=1;fontSize=12;glass=0;strokeWidth=1;shadow=0;fillColor=#60a917;strokeColor=#2D7600;fontColor=#ffffff;" vertex="1" parent="WIyWlLk6GJQsqaUBKTNV-1">
          <mxGeometry x="255" y="1010" width="130" height="40" as="geometry" />
        </mxCell>
        <mxCell id="KO4UqEcmSCtX2pTNxFN--49" value="" style="edgeStyle=orthogonalEdgeStyle;rounded=0;orthogonalLoop=1;jettySize=auto;html=1;endSize=8;endArrow=block;endFill=0;" edge="1" parent="WIyWlLk6GJQsqaUBKTNV-1" source="KO4UqEcmSCtX2pTNxFN--28" target="KO4UqEcmSCtX2pTNxFN--48">
          <mxGeometry relative="1" as="geometry" />
        </mxCell>
        <mxCell id="KO4UqEcmSCtX2pTNxFN--52" value="No" style="edgeLabel;html=1;align=center;verticalAlign=middle;resizable=0;points=[];" vertex="1" connectable="0" parent="KO4UqEcmSCtX2pTNxFN--49">
          <mxGeometry x="-0.1529" relative="1" as="geometry">
            <mxPoint x="-1" y="-10" as="offset" />
          </mxGeometry>
        </mxCell>
        <mxCell id="KO4UqEcmSCtX2pTNxFN--28" value="&lt;br style=&quot;border-color: var(--border-color);&quot;&gt;可用新版&lt;br style=&quot;border-color: var(--border-color);&quot;&gt;Canvas" style="rhombus;whiteSpace=wrap;html=1;shadow=0;fontFamily=Helvetica;fontSize=12;align=center;strokeWidth=1;spacing=6;spacingTop=-4;" vertex="1" parent="WIyWlLk6GJQsqaUBKTNV-1">
          <mxGeometry x="270" y="880" width="100" height="80" as="geometry" />
        </mxCell>
        <mxCell id="KO4UqEcmSCtX2pTNxFN--36" value="渲染交互式图表(old)" style="rounded=1;whiteSpace=wrap;html=1;fontSize=12;glass=0;strokeWidth=1;shadow=0;fillColor=#d5e8d4;strokeColor=#82b366;" vertex="1" parent="WIyWlLk6GJQsqaUBKTNV-1">
          <mxGeometry x="401" y="1010" width="126" height="40" as="geometry" />
        </mxCell>
        <mxCell id="KO4UqEcmSCtX2pTNxFN--53" value="" style="edgeStyle=orthogonalEdgeStyle;rounded=0;orthogonalLoop=1;jettySize=auto;html=1;endSize=8;endArrow=block;endFill=0;" edge="1" parent="WIyWlLk6GJQsqaUBKTNV-1" source="KO4UqEcmSCtX2pTNxFN--37" target="WIyWlLk6GJQsqaUBKTNV-10">
          <mxGeometry relative="1" as="geometry" />
        </mxCell>
        <mxCell id="KO4UqEcmSCtX2pTNxFN--37" value="初始化ec-canvas&lt;br&gt;传入数据" style="rounded=1;whiteSpace=wrap;html=1;fontSize=12;glass=0;strokeWidth=1;shadow=0;" vertex="1" parent="WIyWlLk6GJQsqaUBKTNV-1">
          <mxGeometry x="300" y="400" width="120" height="40" as="geometry" />
        </mxCell>
        <mxCell id="KO4UqEcmSCtX2pTNxFN--40" value="&lt;p style=&quot;line-height: 20%;&quot;&gt;&lt;font color=&quot;#999999&quot; style=&quot;font-size: 11px;&quot;&gt;ec-canvas内部逻辑&lt;/font&gt;&lt;/p&gt;" style="text;html=1;align=center;verticalAlign=middle;resizable=0;points=[];autosize=1;strokeColor=none;fillColor=none;spacing=1;" vertex="1" parent="WIyWlLk6GJQsqaUBKTNV-1">
          <mxGeometry x="540" y="460" width="120" height="40" as="geometry" />
        </mxCell>
        <mxCell id="KO4UqEcmSCtX2pTNxFN--44" value="" style="edgeStyle=orthogonalEdgeStyle;rounded=0;orthogonalLoop=1;jettySize=auto;html=1;endSize=8;endArrow=block;endFill=0;" edge="1" parent="WIyWlLk6GJQsqaUBKTNV-1" source="KO4UqEcmSCtX2pTNxFN--21" target="KO4UqEcmSCtX2pTNxFN--13">
          <mxGeometry relative="1" as="geometry" />
        </mxCell>
        <mxCell id="KO4UqEcmSCtX2pTNxFN--21" value="渲染完成" style="rounded=1;whiteSpace=wrap;html=1;fontSize=12;glass=0;strokeWidth=1;shadow=0;" vertex="1" parent="WIyWlLk6GJQsqaUBKTNV-1">
          <mxGeometry x="310" y="700" width="290" height="40" as="geometry" />
        </mxCell>
        <mxCell id="KO4UqEcmSCtX2pTNxFN--42" value="" style="edgeStyle=orthogonalEdgeStyle;rounded=0;orthogonalLoop=1;jettySize=auto;html=1;endSize=8;endArrow=block;endFill=0;entryX=0.5;entryY=0;entryDx=0;entryDy=0;exitX=0.5;exitY=1;exitDx=0;exitDy=0;" edge="1" parent="WIyWlLk6GJQsqaUBKTNV-1" source="KO4UqEcmSCtX2pTNxFN--6" target="KO4UqEcmSCtX2pTNxFN--21">
          <mxGeometry relative="1" as="geometry">
            <mxPoint x="540" y="650" as="sourcePoint" />
            <mxPoint x="455" y="710" as="targetPoint" />
          </mxGeometry>
        </mxCell>
        <mxCell id="KO4UqEcmSCtX2pTNxFN--43" value="" style="edgeStyle=orthogonalEdgeStyle;rounded=0;orthogonalLoop=1;jettySize=auto;html=1;endSize=8;endArrow=block;endFill=0;entryX=0.5;entryY=0;entryDx=0;entryDy=0;exitX=0.5;exitY=1;exitDx=0;exitDy=0;" edge="1" parent="WIyWlLk6GJQsqaUBKTNV-1" source="WIyWlLk6GJQsqaUBKTNV-12" target="KO4UqEcmSCtX2pTNxFN--21">
          <mxGeometry relative="1" as="geometry">
            <mxPoint x="370" y="670" as="sourcePoint" />
            <mxPoint x="460" y="710" as="targetPoint" />
            <Array as="points">
              <mxPoint x="530" y="680" />
              <mxPoint x="455" y="680" />
            </Array>
          </mxGeometry>
        </mxCell>
        <mxCell id="KO4UqEcmSCtX2pTNxFN--48" value="旧版&lt;br&gt;展示为图片" style="rhombus;whiteSpace=wrap;html=1;shadow=0;fontFamily=Helvetica;fontSize=12;align=center;strokeWidth=1;spacing=6;spacingTop=-4;" vertex="1" parent="WIyWlLk6GJQsqaUBKTNV-1">
          <mxGeometry x="414" y="880" width="100" height="80" as="geometry" />
        </mxCell>
        <mxCell id="KO4UqEcmSCtX2pTNxFN--50" value="No" style="edgeStyle=orthogonalEdgeStyle;rounded=0;html=1;jettySize=auto;orthogonalLoop=1;fontSize=11;endArrow=block;endFill=0;endSize=8;strokeWidth=1;shadow=0;labelBackgroundColor=none;entryX=0.5;entryY=0;entryDx=0;entryDy=0;exitX=0.5;exitY=1;exitDx=0;exitDy=0;" edge="1" parent="WIyWlLk6GJQsqaUBKTNV-1" source="KO4UqEcmSCtX2pTNxFN--48" target="KO4UqEcmSCtX2pTNxFN--36">
          <mxGeometry x="-0.4286" y="20" relative="1" as="geometry">
            <mxPoint as="offset" />
            <mxPoint x="465" y="990" as="sourcePoint" />
            <mxPoint x="465" y="1060" as="targetPoint" />
          </mxGeometry>
        </mxCell>
        <mxCell id="KO4UqEcmSCtX2pTNxFN--51" value="Yes" style="edgeStyle=orthogonalEdgeStyle;rounded=0;html=1;jettySize=auto;orthogonalLoop=1;fontSize=11;endArrow=block;endFill=0;endSize=8;strokeWidth=1;shadow=0;labelBackgroundColor=none;entryX=0.5;entryY=0;entryDx=0;entryDy=0;exitX=1;exitY=0.5;exitDx=0;exitDy=0;" edge="1" parent="WIyWlLk6GJQsqaUBKTNV-1" source="KO4UqEcmSCtX2pTNxFN--48" target="KO4UqEcmSCtX2pTNxFN--26">
          <mxGeometry x="-0.6667" y="10" relative="1" as="geometry">
            <mxPoint as="offset" />
            <mxPoint x="465" y="990" as="sourcePoint" />
            <mxPoint x="465" y="1060" as="targetPoint" />
          </mxGeometry>
        </mxCell>
        <mxCell id="KO4UqEcmSCtX2pTNxFN--54" value="小程序基础库&lt;br&gt;&amp;gt;=2.9.0" style="whiteSpace=wrap;html=1;fillColor=#dae8fc;strokeColor=#6c8ebf;rounded=1;" vertex="1" parent="WIyWlLk6GJQsqaUBKTNV-1">
          <mxGeometry x="120" y="487.5" width="100" height="45" as="geometry" />
        </mxCell>
        <mxCell id="KO4UqEcmSCtX2pTNxFN--73" value="" style="rounded=0;orthogonalLoop=1;jettySize=auto;html=1;endArrow=none;endFill=0;startArrow=async;endSize=8;startSize=8;startFill=0;entryX=1;entryY=0.5;entryDx=0;entryDy=0;" edge="1" parent="WIyWlLk6GJQsqaUBKTNV-1" target="KO4UqEcmSCtX2pTNxFN--54">
          <mxGeometry relative="1" as="geometry">
            <mxPoint x="310" y="509.83000000000004" as="sourcePoint" />
            <mxPoint x="150" y="460" as="targetPoint" />
          </mxGeometry>
        </mxCell>
        <mxCell id="KO4UqEcmSCtX2pTNxFN--74" value="" style="rounded=0;orthogonalLoop=1;jettySize=auto;html=1;endArrow=none;endFill=0;startArrow=async;endSize=8;startSize=8;startFill=0;exitX=1;exitY=0.5;exitDx=0;exitDy=0;" edge="1" parent="WIyWlLk6GJQsqaUBKTNV-1" source="KO4UqEcmSCtX2pTNxFN--54">
          <mxGeometry relative="1" as="geometry">
            <mxPoint x="180" y="509.83000000000004" as="sourcePoint" />
            <mxPoint x="310" y="509.83000000000004" as="targetPoint" />
          </mxGeometry>
        </mxCell>
        <mxCell id="KO4UqEcmSCtX2pTNxFN--77" value="" style="rounded=0;orthogonalLoop=1;jettySize=auto;html=1;endArrow=none;endFill=0;startArrow=async;endSize=8;startSize=8;startFill=0;exitX=0.5;exitY=1;exitDx=0;exitDy=0;" edge="1" parent="WIyWlLk6GJQsqaUBKTNV-1" source="KO4UqEcmSCtX2pTNxFN--54">
          <mxGeometry relative="1" as="geometry">
            <mxPoint x="140" y="820" as="sourcePoint" />
            <mxPoint x="170" y="920" as="targetPoint" />
          </mxGeometry>
        </mxCell>
        <mxCell id="KO4UqEcmSCtX2pTNxFN--78" value="" style="rounded=0;orthogonalLoop=1;jettySize=auto;html=1;endArrow=none;endFill=0;startArrow=async;endSize=8;startSize=8;startFill=0;entryX=0.5;entryY=1;entryDx=0;entryDy=0;exitX=0;exitY=0.5;exitDx=0;exitDy=0;" edge="1" parent="WIyWlLk6GJQsqaUBKTNV-1" source="KO4UqEcmSCtX2pTNxFN--28" target="KO4UqEcmSCtX2pTNxFN--54">
          <mxGeometry relative="1" as="geometry">
            <mxPoint x="280" y="619.86" as="sourcePoint" />
            <mxPoint x="180" y="620.03" as="targetPoint" />
            <Array as="points">
              <mxPoint x="170" y="920" />
            </Array>
          </mxGeometry>
        </mxCell>
      </root>
    </mxGraphModel>
  </diagram>
</mxfile>
